<?xml version="1.0" encoding="UTF-8" standalone="no"?>
<svg
   height="16"
   viewBox="0 0 16 16"
   width="16"
   version="1.1"
   id="svg4"
   sodipodi:docname="icon_sprite.svg"
   inkscape:version="1.1 (c68e22c387, 2021-05-23)"
   xmlns:inkscape="http://www.inkscape.org/namespaces/inkscape"
   xmlns:sodipodi="http://sodipodi.sourceforge.net/DTD/sodipodi-0.dtd"
   xmlns="http://www.w3.org/2000/svg"
   xmlns:svg="http://www.w3.org/2000/svg">
  <defs
     id="defs8" />
  <sodipodi:namedview
     id="namedview6"
     pagecolor="#ffffff"
     bordercolor="#666666"
     borderopacity="1.0"
     inkscape:pageshadow="2"
     inkscape:pageopacity="0.0"
     inkscape:pagecheckerboard="0"
     showgrid="false"
     inkscape:zoom="26.1875"
     inkscape:cx="17.527446"
     inkscape:cy="7.6563246"
     inkscape:window-width="1920"
     inkscape:window-height="1001"
     inkscape:window-x="-9"
     inkscape:window-y="-9"
     inkscape:window-maximized="1"
     inkscape:current-layer="svg4" />
  <path
     id="path2"
     d="m 4.9999999,1.0000002 c -2.216001,0 -4.000001,1.7840001 -4,4 V 11 c 0,2.216 1.783999,4 4,4 H 11 c 2.216,0 4,-1.784 4,-4 V 5.0000002 C 15,2.7840003 13.216,1.0000001 11,1.0000001 Z m -0.146485,2.4101563 c 0.0475,-0.00232 0.0939,0.00494 0.138672,0.025391 0.716385,0.327193 -0.678811,1.1806203 -0.355469,1.6347655 0.59037,0.8291897 2.934674,-0.6519656 3.03125,0.3613281 0.05291,0.5551801 -1.59375,0.5097656 -1.59375,0.5097656 0,1e-7 2.032138,2.2161109 1.203125,2.8066408 -0.454235,0.3235645 -1.238281,-1.1250001 -1.238281,-1.1250001 0,0 -0.904416,2.8661336 -1.830078,2.4433596 -0.507108,-0.2316092 0.357422,-1.6347659 0.357422,-1.6347659 0,0 -2.936623,0.6519657 -3.033203,-0.3613281 -0.05291,-0.5551793 1.59375,-0.5097656 1.59375,-0.5097656 0,0 -2.032137,-2.2161113 -1.203125,-2.8066407 0.454235,-0.3235644 1.238281,1.125 1.238281,1.125 0,0 0.978854,-2.4338793 1.691406,-2.4687502 z m 6.4921881,0.076172 c 0.0475,-0.00232 0.0939,0.00494 0.138671,0.025391 0.716385,0.3271929 -0.680763,1.1806203 -0.357421,1.6347656 0.59037,0.8291897 2.936623,-0.6519657 3.033203,0.3613281 0.05291,0.5551801 -1.59375,0.5097655 -1.59375,0.5097655 0,0 2.032138,2.2161108 1.203125,2.8066407 -0.454235,0.3235645 -1.238282,-1.125 -1.238281,-1.125 -10e-7,-10e-8 -0.904417,2.8661346 -1.830079,2.4433596 -0.507108,-0.2316101 0.355469,-1.6328127 0.355469,-1.6328127 0,0 -2.9346701,0.6500125 -3.0312501,-0.3632812 -0.05291,-0.5551793 1.5937505,-0.5097656 1.5937505,-0.5097656 0,0 -2.0321375,-2.2161114 -1.2031255,-2.8066407 0.454235,-0.3235645 1.2382815,1.1269531 1.2382815,1.1269531 0,0 0.9788546,-2.4358324 1.6914066,-2.4707034 z M 4.3164059,5.1835941 c -0.410208,0.00472 -0.04778,1.1842795 -0.484375,1.3515624 -0.246923,0.09461 -0.540486,-0.5628106 -0.707031,-0.3574218 -0.304119,0.3750474 0.982026,0.6539873 0.90625,1.1308594 -0.0415,0.2611827 -0.758737,0.1886138 -0.664063,0.4355468 0.172815,0.4507522 1.056628,-0.5246946 1.431641,-0.220703 0.205261,0.1663918 -0.216035,0.7514841 0.04492,0.7929687 0.476644,0.075769 0.07471,-1.1769307 0.52539,-1.3496094 0.246922,-0.09461 0.540485,0.5628103 0.707031,0.3574219 0.304118,-0.3750478 -0.980077,-0.6539877 -0.904297,-1.1308594 0.04151,-0.2611831 0.75678,-0.1886136 0.66211,-0.4355469 -0.17282,-0.4507519 -1.056632,0.5246946 -1.431641,0.2207031 -0.205269,-0.1663919 0.217989,-0.7495326 -0.04297,-0.7910156 -0.01489,-0.00237 -0.02974,-0.00406 -0.04297,-0.00391 z m 6.4921871,0.076172 c -0.410211,0.00472 -0.04778,1.1842795 -0.484375,1.3515625 C 10.077295,6.7059386 9.7837334,6.048518 9.6171874,6.2539068 9.3130689,6.6289541 10.597264,6.9078941 10.521484,7.3847661 10.479984,7.6459489 9.7647044,7.57338 9.8593743,7.8203131 10.03219,8.2710652 10.916002,7.2956184 11.291015,7.59961 c 0.205259,0.1663918 -0.217987,0.7514837 0.04297,0.7929687 0.476639,0.075769 0.07667,-1.1769307 0.527344,-1.3496093 0.246922,-0.09461 0.540485,0.5628102 0.707031,0.3574218 0.304118,-0.3750478 -0.98203,-0.6539876 -0.90625,-1.1308594 0.0415,-0.2611829 0.758732,-0.1866604 0.664062,-0.4335938 -0.17282,-0.4507519 -1.056631,0.5227415 -1.43164,0.21875 -0.205269,-0.1663918 0.216035,-0.7495326 -0.04492,-0.7910155 -0.0149,-0.00237 -0.02778,-0.00406 -0.04102,-0.00391 z m -0.564257,5.5804059 a 1.0001,1.0001 0 0 1 0.7168,1.7207 c -0.74987,0.74987 -1.7676,1.1719 -2.8281,1.1719 -1.0605,0 -2.0783,-0.422 -2.8281,-1.1719 a 1.0001,1.0001 0 0 1 0.69727,-1.7168 1.0001,1.0001 0 0 1 0.7168,0.30273 c 0.37534,0.37535 0.88325,0.58594 1.4141,0.58594 0.53085,0 1.0387,-0.21059 1.4141,-0.58594 a 1.0001,1.0001 0 0 1 0.69727,-0.30664 z"
     style="fill:#ffcc00;fill-opacity:1;stroke:none" />
  <path
     style="fill:#ffcc00;stroke-width:0.0959765;stroke-linecap:round;stroke-linejoin:round;fill-opacity:1;stroke:none"
     d="M 4.3896623,14.932757 C 2.6687473,14.665277 1.3299745,13.318013 1.067475,11.589499 0.9865279,11.056477 0.9865279,4.9435234 1.067475,4.4105012 1.200533,3.5343368 1.5621231,2.8201569 2.19114,2.19114 2.8164719,1.5658081 3.5404016,1.1992466 4.4105012,1.0673675 4.9438866,0.9865233 11.057049,0.9866149 11.589499,1.067475 c 0.876164,0.133058 1.590344,0.4946481 2.219361,1.123665 0.629017,0.6290169 0.990607,1.3431968 1.123665,2.2193612 0.08095,0.5330222 0.08095,6.6459758 0,7.1789978 -0.264389,1.740956 -1.60207,3.078637 -3.343026,3.343026 -0.491684,0.07467 -6.7196325,0.07487 -7.1998367,2.29e-4 z M 8.49642,13.726953 c 0.4969505,-0.05183 0.9085648,-0.164021 1.3263412,-0.361515 0.6968558,-0.329424 1.2737488,-0.819215 1.3994628,-1.188165 0.239116,-0.701767 -0.31087,-1.407953 -1.044706,-1.341411 -0.2664753,0.02416 -0.4008135,0.09123 -0.7126504,0.355766 -0.4171319,0.353864 -0.8290612,0.512429 -1.3312161,0.512429 -0.5068777,0 -0.9136924,-0.158232 -1.3428723,-0.522317 -0.2706448,-0.229595 -0.5404342,-0.355964 -0.7599595,-0.355964 -0.6944027,0 -1.1868663,0.646727 -0.9950083,1.306694 0.1625061,0.559002 1.1521325,1.253244 2.1337886,1.496894 0.2115441,0.05251 0.5809589,0.105876 0.9067723,0.131005 0.031504,0.0024 0.2205251,-0.01261 0.4200477,-0.03342 z m 2.615752,-3.583772 c 0.401831,-0.1839909 0.869797,-0.9149611 1.277523,-1.9955086 l 0.145337,-0.3851693 0.170592,0.2619463 c 0.497222,0.7634891 0.9073,1.0278145 1.148976,0.7405988 C 14.117163,8.4530108 13.975926,7.9188055 13.405199,7.065262 13.250419,6.8337833 13.017379,6.5187062 12.887333,6.3650906 12.757286,6.2114753 12.659784,6.0768909 12.670661,6.0660139 c 0.01088,-0.010877 0.205398,-0.035894 0.432269,-0.055594 0.457046,-0.039686 0.649106,-0.082445 0.864981,-0.192577 0.250509,-0.1277999 0.278436,-0.4013075 0.05976,-0.5853075 -0.100944,-0.084939 -0.14978,-0.096461 -0.407694,-0.096195 -0.163287,1.527e-4 -0.495547,0.042442 -0.750477,0.095482 -0.610429,0.1270045 -1.061703,0.1803024 -1.266541,0.1495851 -0.306145,-0.045909 -0.547799,-0.280042 -0.497184,-0.4817084 0.01344,-0.053567 0.126878,-0.2533916 0.252074,-0.4440548 0.294216,-0.4480662 0.346203,-0.5516258 0.346203,-0.6896407 0,-0.1213038 -0.130679,-0.2553938 -0.287177,-0.2946723 -0.361078,-0.090625 -0.954089,0.6637525 -1.5644584,1.9901656 L 9.6512225,5.8987303 9.4559454,5.5981785 C 9.1894343,5.1879901 8.9486007,4.9292895 8.7386268,4.827643 8.5663221,4.7442316 8.5596861,4.7438673 8.4350652,4.81098 8.2449134,4.9133839 8.1667051,5.1436934 8.2241375,5.4321249 c 0.08827,0.4433008 0.4602169,1.0906447 1.038993,1.8082875 l 0.2959072,0.3669041 -0.3931399,0.025417 c -0.8141307,0.052635 -1.2150392,0.2475272 -1.1469445,0.5575599 0.039668,0.1806086 0.1920852,0.3315249 0.4313188,0.4270728 0.1983763,0.079229 0.2798171,0.087112 0.9053365,0.087626 0.6209061,5.117e-4 1.2827864,-0.064862 1.6005824,-0.1580842 0.06605,-0.019376 0.06359,-0.00517 -0.0254,0.1466814 -0.173602,0.2962287 -0.37259,0.8251261 -0.395958,1.0524277 -0.03163,0.3076979 0.07369,0.4403829 0.367313,0.4627409 0.0315,0.0024 0.126014,-0.02711 0.210024,-0.06558 z M 4.6205251,10.066809 C 5.0223561,9.8828178 5.4903225,9.1518476 5.8980479,8.0713 L 6.0433848,7.6861308 6.2139773,7.9480771 c 0.351995,0.5404919 0.685338,0.8538322 0.9083375,0.8538322 0.1513658,0 0.2966263,-0.1329776 0.346145,-0.3168756 C 7.5795154,8.0726041 7.1886373,7.2608913 6.4379311,6.3449982 6.2857489,6.1593298 6.1696859,5.9989697 6.180013,5.9886423 6.1903404,5.9783152 6.384412,5.9537478 6.6112832,5.9340479 7.0645243,5.8946925 7.2605854,5.851502 7.469259,5.7450448 7.7219567,5.6161279 7.7527332,5.3385081 7.5346684,5.1550186 7.4363822,5.0723166 7.3842096,5.0596659 7.141422,5.0596659 c -0.1626058,0 -0.5254739,0.049888 -0.865805,0.1190316 C 5.5450482,5.3271252 5.0656989,5.3451681 4.8727267,5.2315036 4.8014136,5.1894988 4.7093813,5.1099353 4.6682102,5.0546956 4.5627878,4.9132494 4.6015717,4.7822901 4.869907,4.373638 5.16027,3.9314393 5.2124105,3.827311 5.2124105,3.6896321 5.2124105,3.5683283 5.081731,3.4342383 4.925233,3.3949598 4.5641556,3.3043351 3.9711437,4.0587123 3.3607747,5.3851253 L 3.1595756,5.822358 2.9642985,5.5218062 C 2.6991526,5.1137191 2.4571654,4.8530196 2.2507753,4.7531077 2.0989799,4.6796248 2.0643327,4.6755029 1.9603835,4.71856 1.832762,4.7714226 1.7016146,5.0023534 1.7001227,5.1768401 1.6967115,5.5757682 2.1565531,6.4230495 2.8005915,7.2045105 L 3.069508,7.5308074 2.6753095,7.5562929 C 2.0463679,7.596955 1.6659098,7.7227567 1.5506054,7.9281856 c -0.1146935,0.204341 0.066904,0.4768569 0.40802,0.6122997 0.1978696,0.078566 0.2814152,0.086607 0.9053364,0.087143 0.6201974,5.307e-4 1.2860076,-0.064815 1.6005824,-0.1570925 0.066051,-0.019376 0.063591,-0.00517 -0.025398,0.1466814 -0.1736016,0.2962287 -0.3725905,0.8251261 -0.3959586,1.0524277 -0.031633,0.3076979 0.073689,0.4403821 0.3673135,0.4627411 0.031504,0.0024 0.1260143,-0.02711 0.2100239,-0.06558 z"
     id="path1109" />
  <path
     style="fill:#ffcc00;stroke-width:0.0959765;stroke-linecap:round;stroke-linejoin:round;fill-opacity:1;stroke:none"
     d="m 11.295882,8.3402734 c -0.02999,-0.029993 -0.02718,-0.1018556 0.0101,-0.2577566 0.06477,-0.2708961 0.06763,-0.4358791 0.0086,-0.4949273 C 11.211816,7.4848473 10.933887,7.5356229 10.520286,7.7326969 10.096667,7.934545 9.9860706,7.9588419 9.9097115,7.8668347 9.8271746,7.7673839 9.8979475,7.701128 10.17478,7.6186837 10.359137,7.5637797 10.463036,7.5098951 10.503439,7.4482326 10.600826,7.2996011 10.499089,7.1210308 10.192717,6.9028459 9.6352851,6.5058684 9.6229117,6.4944207 9.6229117,6.3756685 c 0,-0.1756453 0.1038847,-0.1584566 0.3411967,0.056454 0.2265086,0.2051271 0.3509546,0.2401986 0.4611826,0.1299706 0.101908,-0.1019079 0.132624,-0.2255614 0.170031,-0.68451 0.04021,-0.4933293 0.07549,-0.5888006 0.217563,-0.5888006 0.108094,0 0.107114,-0.021045 0.02541,0.5460595 -0.01568,0.1088187 -0.0031,0.1647598 0.05011,0.2237026 0.104847,0.116037 0.343459,0.073611 0.778675,-0.138451 0.381885,-0.1860763 0.548872,-0.2090724 0.625008,-0.086071 0.05348,0.086395 0.01107,0.1144934 -0.329376,0.2182358 -0.47854,0.1458234 -0.436585,0.3875063 0.13336,0.7682282 0.329025,0.219788 0.486263,0.3755696 0.486263,0.4817588 0,0.1574736 -0.104953,0.1443983 -0.299173,-0.037272 C 12.033194,7.031157 11.947033,6.9885845 11.83089,7.0415026 c -0.136223,0.062068 -0.200233,0.25837 -0.23818,0.7304456 -0.04148,0.5160506 -0.147027,0.7181298 -0.296832,0.568325 z"
     id="path1148" />
  <path
     style="fill:#ffcc00;stroke-width:0.0959765;stroke-linecap:round;stroke-linejoin:round;fill-opacity:1;stroke:none"
     d="M 4.803861,8.2421881 C 4.790501,8.2073721 4.799631,8.0817557 4.824153,7.9630398 4.911301,7.5411112 4.877686,7.4653938 4.6032182,7.4653938 4.4734587,7.4653938 4.327688,7.5138328 4.02864,7.6563246 3.6050198,7.8581726 3.4944239,7.8824696 3.4180647,7.7904624 3.3355278,7.6910116 3.4063007,7.6247557 3.6831332,7.5423114 3.8674907,7.4874074 3.9713894,7.4335228 4.0117922,7.3718603 4.1091793,7.2232288 4.0074427,7.0446585 3.7010697,6.8264735 3.1436383,6.4294961 3.1312649,6.4180484 3.1312649,6.2992961 c 0,-0.1756452 0.1038847,-0.1584565 0.3411967,0.056454 C 3.69897,6.5608776 3.8234167,6.5959491 3.9336447,6.4857211 4.0364275,6.3829384 4.0683128,6.2537175 4.101885,5.8038983 4.138075,5.3190003 4.177604,5.2124105 4.3212377,5.2124105 c 0.1080942,0 0.1071148,-0.021045 0.025411,0.5460595 -0.015678,0.1088187 -0.00315,0.1647598 0.050113,0.2237026 0.1048476,0.116037 0.3434595,0.073611 0.7786755,-0.1384511 0.3818851,-0.1860762 0.5488714,-0.2090723 0.6250075,-0.086071 0.052797,0.085296 0.00491,0.119505 -0.2825451,0.201827 -0.2742284,0.078535 -0.3564042,0.1424492 -0.3564042,0.2772024 0,0.1516783 0.1053936,0.2779872 0.3931459,0.4711659 0.3687588,0.2475613 0.5360506,0.4082773 0.5360506,0.5149801 0,0.1604449 -0.1037431,0.148577 -0.2991726,-0.034224 C 5.5415508,6.9547848 5.4553903,6.9122123 5.3392476,6.9651305 5.203024,7.0271982 5.1390145,7.2235005 5.1010668,7.6955761 5.0665206,8.1253382 5.0029219,8.3054893 4.8857494,8.3054893 c -0.031679,0 -0.068528,-0.028486 -0.081888,-0.063301 z"
     id="path1187" />
</svg>
