<?xml version="1.0" encoding="UTF-8" standalone="no"?>
<svg
   height="16"
   viewBox="0 0 16 16"
   width="16"
   version="1.1"
   id="svg4"
   sodipodi:docname="icon_mouseArea.svg"
   inkscape:version="1.1 (c68e22c387, 2021-05-23)"
   xmlns:inkscape="http://www.inkscape.org/namespaces/inkscape"
   xmlns:sodipodi="http://sodipodi.sourceforge.net/DTD/sodipodi-0.dtd"
   xmlns="http://www.w3.org/2000/svg"
   xmlns:svg="http://www.w3.org/2000/svg">
  <defs
     id="defs8" />
  <sodipodi:namedview
     id="namedview6"
     pagecolor="#ffffff"
     bordercolor="#666666"
     borderopacity="1.0"
     inkscape:pageshadow="2"
     inkscape:pageopacity="0.0"
     inkscape:pagecheckerboard="0"
     showgrid="false"
     inkscape:zoom="52.375"
     inkscape:cx="8.4677804"
     inkscape:cy="7.627685"
     inkscape:window-width="1920"
     inkscape:window-height="1001"
     inkscape:window-x="-9"
     inkscape:window-y="-9"
     inkscape:window-maximized="1"
     inkscape:current-layer="svg4" />
  <path
     d="M 1,1 V 3 7.8639618 H 3 V 3 H 7.5966587 V 1 Z M 13,11.916468 V 13 h -1.00716 v 2 H 15 v -2 -1.083532 z"
     fill="#a5b7f3"
     id="path2"
     sodipodi:nodetypes="cccccccccccccccc" />
  <path
     d="M 4.4260374,4.4492011 V 5.2233672 6.7716991 7.5458652 H 7.5227013 V 6.7716991 4.4492011 Z m 0.774166,0.7741661 H 6.7485353 V 6.7716991 H 5.2002034 Z"
     style="fill:#a5b7f3;stroke-width:0.387083"
     id="path1610" />
  <path
     d="M 6.7485353,6.7716991 V 7.5458652 9.0941977 9.8683624 H 9.845199 V 9.0941977 6.7716991 Z m 0.774166,0.7741661 H 9.071034 V 9.0941977 H 7.5227013 Z"
     style="fill:#a5b7f3;stroke-width:0.387083"
     id="path1701" />
  <path
     d="m 9.071033,9.0941963 v 0.7741661 1.5483316 0.774165 h 3.096664 V 11.416694 9.0941963 Z m 0.774166,0.7741661 h 1.548333 V 11.416694 H 9.845199 Z"
     style="fill:#a5b7f3;stroke-width:0.387083"
     id="path1703" />
  <path
     style="fill:#ffcc00;stroke-width:0.0959765;stroke-linecap:round;stroke-linejoin:round"
     d="M 1.0310263,4.4295943 V 1.0119332 H 4.3150358 7.5990453 V 2.0047733 2.9976134 H 5.2887828 2.9785203 v 2.424821 2.424821 h -0.973747 -0.973747 z"
     id="path1779" />
  <path
     style="fill:#ffcc00;stroke-width:0.0959765;stroke-linecap:round;stroke-linejoin:round"
     d="M 9.0883055,11.016706 V 9.8711217 H 7.9236277 6.7589499 V 8.7064439 7.5417661 H 5.5942721 4.4295943 V 5.9952267 4.4486873 H 5.9761336 7.522673 V 5.6133652 6.778043 h 1.1450249 1.1450246 l 0.010107,1.1551312 0.010106,1.1551313 1.1551315,0.010106 1.155131,0.010107 v 1.5268865 1.526886 H 10.615752 9.0883055 Z M 11.417661,10.653938 V 9.8711217 H 10.615752 9.8138425 V 10.62848 c 0,0.416548 0.011456,0.768815 0.025457,0.782817 0.014001,0.014 0.3748605,0.02546 0.8019085,0.02546 h 0.776453 z M 9.0883055,8.3245823 V 7.5417661 H 8.3054893 7.522673 V 8.3245823 9.1073986 H 8.3054893 9.0883055 Z M 6.7589499,5.9952267 V 5.2124105 H 5.9761336 5.1933174 V 5.9952267 6.778043 h 0.7828162 0.7828163 z"
     id="path1818" />
  <path
     style="fill:#ffcc00;stroke-width:0.0959765;stroke-linecap:round;stroke-linejoin:round"
     d="m 11.990453,13.995227 v -0.99284 h 0.515514 0.515513 V 12.46778 11.933174 h 0.973747 0.973747 v 1.527447 1.527446 h -1.48926 -1.489261 z"
     id="path1857" />
  <path
     style="fill:#ffcc00;stroke-width:0.0479883;stroke-linecap:round;stroke-linejoin:round"
     d="M 1.0310263,4.4295943 V 1.0214797 h 3.2840095 l 5.5178997,0 v 0.9832936 0.9832935 l -4.5441527,0 H 2.9785203 v 2.424821 4.4677804 h -0.973747 -0.973747 z"
     id="path2023"
     sodipodi:nodetypes="ccccccccccccc" />
</svg>
