<?xml version="1.0" encoding="UTF-8" standalone="no"?>
<svg
   height="16"
   viewBox="0 0 16 16"
   width="16"
   version="1.1"
   id="svg4"
   sodipodi:docname="icon_label.svg"
   inkscape:version="1.1 (c68e22c387, 2021-05-23)"
   xmlns:inkscape="http://www.inkscape.org/namespaces/inkscape"
   xmlns:sodipodi="http://sodipodi.sourceforge.net/DTD/sodipodi-0.dtd"
   xmlns="http://www.w3.org/2000/svg"
   xmlns:svg="http://www.w3.org/2000/svg">
  <defs
     id="defs8" />
  <sodipodi:namedview
     id="namedview6"
     pagecolor="#ffffff"
     bordercolor="#666666"
     borderopacity="1.0"
     inkscape:pageshadow="2"
     inkscape:pageopacity="0.0"
     inkscape:pagecheckerboard="0"
     showgrid="false"
     inkscape:zoom="52.375"
     inkscape:cx="7.9904535"
     inkscape:cy="7.9713604"
     inkscape:window-width="1920"
     inkscape:window-height="1001"
     inkscape:window-x="-9"
     inkscape:window-y="-9"
     inkscape:window-maximized="1"
     inkscape:current-layer="svg4" />
  <path
     d="m6 3a1.0001 1.0001 0 0 0 -.70703.29297l-4 4a1.0001 1.0001 0 0 0 0 1.4141l4 4a1.0001 1.0001 0 0 0 .70703.29297h8a1.0001 1.0001 0 0 0 1-1v-8a1.0001 1.0001 0 0 0 -1-1h-8zm-1 4a1 1 0 0 1 1 1 1 1 0 0 1 -1 1 1 1 0 0 1 -1-1 1 1 0 0 1 1-1z"
     fill="#a5efac"
     fill-rule="evenodd"
     id="path2" />
  <path
     style="fill:#ffcc00;stroke:#ffffff;stroke-width:0.0479883;stroke-linecap:round;stroke-linejoin:round"
     d="M 5.7591232,12.962679 C 5.4881753,12.896784 5.5794807,12.980471 3.3354608,10.741246 2.0909232,9.4993674 1.2283459,8.6241316 1.1839848,8.5581965 1.0523067,8.3624798 1.0230691,8.2610581 1.0230691,8 c 0,-0.2600979 0.027611,-0.3566369 0.15916,-0.5564834 C 1.2294369,7.3717993 2.0007016,6.5888353 3.3343462,5.258754 5.1206257,3.4772468 5.4292724,3.1772887 5.5294135,3.1254784 5.7749787,2.9984295 5.4685275,3.0061327 10.056575,3.0116794 l 4.158222,0.00503 0.113017,0.043043 c 0.312976,0.1191979 0.548099,0.3773782 0.632515,0.694541 0.04096,0.1539091 0.04096,8.3375096 0,8.4914196 -0.04174,0.156819 -0.11792,0.297158 -0.224777,0.414077 -0.121092,0.132493 -0.226345,0.205527 -0.391679,0.271782 l -0.129076,0.05173 -4.171838,0.0033 c -3.5559154,0.0028 -4.1883725,-7.1e-4 -4.2838358,-0.02393 z M 5.2418119,8.9731656 C 5.4923643,8.9088283 5.7036411,8.7559811 5.8461184,8.5359834 6.052013,8.2180636 6.052013,7.7819364 5.8461184,7.4640166 5.33789,6.6792664 4.1503439,6.9370541 4.0063295,7.8633905 3.8995357,8.5503154 4.5640378,9.1472063 5.2418119,8.9731656 Z"
     id="path880" />
</svg>
