<?xml version="1.0" encoding="UTF-8" standalone="no"?>
<svg
   height="16"
   viewBox="0 0 16 16"
   width="16"
   version="1.1"
   id="svg4"
   sodipodi:docname="icon_line_edit.svg"
   inkscape:version="1.1 (c68e22c387, 2021-05-23)"
   xmlns:inkscape="http://www.inkscape.org/namespaces/inkscape"
   xmlns:sodipodi="http://sodipodi.sourceforge.net/DTD/sodipodi-0.dtd"
   xmlns="http://www.w3.org/2000/svg"
   xmlns:svg="http://www.w3.org/2000/svg">
  <defs
     id="defs8" />
  <sodipodi:namedview
     id="namedview6"
     pagecolor="#ffffff"
     bordercolor="#666666"
     borderopacity="1.0"
     inkscape:pageshadow="2"
     inkscape:pageopacity="0.0"
     inkscape:pagecheckerboard="0"
     showgrid="false"
     inkscape:zoom="52.375"
     inkscape:cx="7.9904535"
     inkscape:cy="7.9713604"
     inkscape:window-width="1920"
     inkscape:window-height="1001"
     inkscape:window-x="-9"
     inkscape:window-y="-9"
     inkscape:window-maximized="1"
     inkscape:current-layer="svg4" />
  <path
     d="m2 4v5h2v-5zm-1 7c0 1.1046.89543 2 2 2h10c1.1046 0 2-.89543 2-2h-2-10z"
     fill="#a5efac"
     id="path2" />
  <path
     style="fill:#ffcc00;stroke:#ffffff;stroke-width:0.0479883;stroke-linecap:round;stroke-linejoin:round"
     d="M 2.0047733,6.5011933 V 4 H 2.9976134 3.9904535 V 6.5011933 9.0023866 H 2.9976134 2.0047733 Z"
     id="path862" />
  <path
     style="fill:#ffcc00;stroke:#ffffff;stroke-width:0.0479883;stroke-linecap:round;stroke-linejoin:round"
     d="M 2.7016706,12.971798 C 1.8086827,12.84197 1.0816848,12.065731 1.0181258,11.174224 L 1.0062151,11.00716 H 8 14.993785 l -0.01197,0.167064 c -0.02308,0.322064 -0.131591,0.633138 -0.321288,0.921085 -0.275153,0.417663 -0.667626,0.695647 -1.193599,0.845415 l -0.149502,0.04257 -5.2505962,0.0026 c -2.9035805,0.0014 -5.3018043,-0.0049 -5.3651552,-0.01408 z"
     id="path938" />
</svg>
